<?xml version="1.0" encoding="UTF-8" standalone="no"?>
<!DOCTYPE svg PUBLIC "-//W3C//DTD SVG 1.1//EN"
 "http://www.w3.org/Graphics/SVG/1.1/DTD/svg11.dtd">
<!-- Generated by graphviz version 13.0.1 (0)
 -->
<!-- Title: G Pages: 1 -->
<svg width="758pt" height="563pt"
 viewBox="0.00 0.00 758.00 563.00" xmlns="http://www.w3.org/2000/svg" xmlns:xlink="http://www.w3.org/1999/xlink">
<g id="graph0" class="graph" transform="scale(1 1) rotate(0) translate(4 559)">
<title>G</title>
<polygon fill="white" stroke="none" points="-4,4 -4,-559 754,-559 754,4 -4,4"/>
<!-- data.hcloud_images.ubuntu -->
<g id="node1" class="node">
<title>data.hcloud_images.ubuntu</title>
<polygon fill="none" stroke="black" points="700.5,-36 500.75,-36 500.75,0 700.5,0 700.5,-36"/>
<text xml:space="preserve" text-anchor="middle" x="600.62" y="-14.45" font-family="sans-serif" font-size="14.00">data.hcloud_images.ubuntu</text>
</g>
<!-- data.hcloud_server_types.available -->
<g id="node2" class="node">
<title>data.hcloud_server_types.available</title>
<polygon fill="none" stroke="black" points="722.62,-90 478.62,-90 478.62,-54 722.62,-54 722.62,-90"/>
<text xml:space="preserve" text-anchor="middle" x="600.62" y="-68.45" font-family="sans-serif" font-size="14.00">data.hcloud_server_types.available</text>
</g>
<!-- cloudflare_dns_record.domain_main -->
<g id="node3" class="node">
<title>cloudflare_dns_record.domain_main</title>
<polygon fill="none" stroke="black" points="726.38,-393 474.88,-393 474.88,-357 726.38,-357 726.38,-393"/>
<text xml:space="preserve" text-anchor="middle" x="600.62" y="-371.45" font-family="sans-serif" font-size="14.00">cloudflare_dns_record.domain_main</text>
</g>
<!-- cloudflare_zone.domains -->
<g id="node7" class="node">
<title>cloudflare_zone.domains</title>
<polygon fill="none" stroke="black" points="399.12,-447 219.62,-447 219.62,-411 399.12,-411 399.12,-447"/>
<text xml:space="preserve" text-anchor="middle" x="309.38" y="-425.45" font-family="sans-serif" font-size="14.00">cloudflare_zone.domains</text>
</g>
<!-- cloudflare_dns_record.domain_main&#45;&gt;cloudflare_zone.domains -->
<g id="edge1" class="edge">
<title>cloudflare_dns_record.domain_main&#45;&gt;cloudflare_zone.domains</title>
<path fill="none" stroke="black" d="M497.44,-393.47C481.96,-396.3 466.18,-399.21 451.25,-402 438.02,-404.47 424.09,-407.1 410.36,-409.72"/>
<polygon fill="black" stroke="black" points="410.06,-406.21 400.89,-411.52 411.37,-413.09 410.06,-406.21"/>
</g>
<!-- hcloud_server.domains -->
<g id="node16" class="node">
<title>hcloud_server.domains</title>
<polygon fill="none" stroke="black" points="392.75,-393 226,-393 226,-357 392.75,-357 392.75,-393"/>
<text xml:space="preserve" text-anchor="middle" x="309.38" y="-371.45" font-family="sans-serif" font-size="14.00">hcloud_server.domains</text>
</g>
<!-- cloudflare_dns_record.domain_main&#45;&gt;hcloud_server.domains -->
<g id="edge2" class="edge">
<title>cloudflare_dns_record.domain_main&#45;&gt;hcloud_server.domains</title>
<path fill="none" stroke="black" d="M474.44,-375C451.03,-375 426.94,-375 404.66,-375"/>
<polygon fill="black" stroke="black" points="404.71,-371.5 394.71,-375 404.71,-378.5 404.71,-371.5"/>
</g>
<!-- cloudflare_dns_record.domain_subdomains -->
<g id="node4" class="node">
<title>cloudflare_dns_record.domain_subdomains</title>
<polygon fill="none" stroke="black" points="750,-447 451.25,-447 451.25,-411 750,-411 750,-447"/>
<text xml:space="preserve" text-anchor="middle" x="600.62" y="-425.45" font-family="sans-serif" font-size="14.00">cloudflare_dns_record.domain_subdomains</text>
</g>
<!-- cloudflare_dns_record.domain_subdomains&#45;&gt;cloudflare_zone.domains -->
<g id="edge3" class="edge">
<title>cloudflare_dns_record.domain_subdomains&#45;&gt;cloudflare_zone.domains</title>
<path fill="none" stroke="black" d="M450.76,-429C437.17,-429 423.62,-429 410.6,-429"/>
<polygon fill="black" stroke="black" points="410.83,-425.5 400.83,-429 410.83,-432.5 410.83,-425.5"/>
</g>
<!-- cloudflare_dns_record.domain_subdomains&#45;&gt;hcloud_server.domains -->
<g id="edge4" class="edge">
<title>cloudflare_dns_record.domain_subdomains&#45;&gt;hcloud_server.domains</title>
<path fill="none" stroke="black" d="M497.44,-410.53C481.96,-407.7 466.18,-404.79 451.25,-402 435.94,-399.14 419.69,-396.06 403.89,-393.05"/>
<polygon fill="black" stroke="black" points="405,-389.7 394.52,-391.26 403.69,-396.58 405,-389.7"/>
</g>
<!-- cloudflare_origin_ca_certificate.main -->
<g id="node5" class="node">
<title>cloudflare_origin_ca_certificate.main</title>
<polygon fill="none" stroke="black" points="728.25,-555 473,-555 473,-519 728.25,-519 728.25,-555"/>
<text xml:space="preserve" text-anchor="middle" x="600.62" y="-533.45" font-family="sans-serif" font-size="14.00">cloudflare_origin_ca_certificate.main</text>
</g>
<!-- cloudflare_page_rule.api_cache -->
<g id="node6" class="node">
<title>cloudflare_page_rule.api_cache</title>
<polygon fill="none" stroke="black" points="710.62,-501 490.62,-501 490.62,-465 710.62,-465 710.62,-501"/>
<text xml:space="preserve" text-anchor="middle" x="600.62" y="-479.45" font-family="sans-serif" font-size="14.00">cloudflare_page_rule.api_cache</text>
</g>
<!-- cloudflare_page_rule.api_cache&#45;&gt;cloudflare_zone.domains -->
<g id="edge5" class="edge">
<title>cloudflare_page_rule.api_cache&#45;&gt;cloudflare_zone.domains</title>
<path fill="none" stroke="black" d="M497.44,-464.53C481.96,-461.7 466.18,-458.79 451.25,-456 438.02,-453.53 424.09,-450.9 410.36,-448.28"/>
<polygon fill="black" stroke="black" points="411.37,-444.91 400.89,-446.48 410.06,-451.79 411.37,-444.91"/>
</g>
<!-- hcloud_firewall.main -->
<g id="node8" class="node">
<title>hcloud_firewall.main</title>
<polygon fill="none" stroke="black" points="159.25,-343 8.25,-343 8.25,-307 159.25,-307 159.25,-343"/>
<text xml:space="preserve" text-anchor="middle" x="83.75" y="-321.45" font-family="sans-serif" font-size="14.00">hcloud_firewall.main</text>
</g>
<!-- hcloud_load_balancer.main -->
<g id="node9" class="node">
<title>hcloud_load_balancer.main</title>
<polygon fill="none" stroke="black" points="405.5,-193 213.25,-193 213.25,-157 405.5,-157 405.5,-193"/>
<text xml:space="preserve" text-anchor="middle" x="309.38" y="-171.45" font-family="sans-serif" font-size="14.00">hcloud_load_balancer.main</text>
</g>
<!-- hcloud_load_balancer_network.main -->
<g id="node10" class="node">
<title>hcloud_load_balancer_network.main</title>
<polygon fill="none" stroke="black" points="728.62,-271 472.62,-271 472.62,-235 728.62,-235 728.62,-271"/>
<text xml:space="preserve" text-anchor="middle" x="600.62" y="-249.45" font-family="sans-serif" font-size="14.00">hcloud_load_balancer_network.main</text>
</g>
<!-- hcloud_load_balancer_network.main&#45;&gt;hcloud_load_balancer.main -->
<g id="edge6" class="edge">
<title>hcloud_load_balancer_network.main&#45;&gt;hcloud_load_balancer.main</title>
<path fill="none" stroke="black" d="M534,-234.54C498.82,-224.72 454.72,-212.54 415.25,-202 408.31,-200.15 401.11,-198.25 393.88,-196.36"/>
<polygon fill="black" stroke="black" points="394.94,-193.01 384.38,-193.88 393.17,-199.79 394.94,-193.01"/>
</g>
<!-- hcloud_network.main -->
<g id="node14" class="node">
<title>hcloud_network.main</title>
<polygon fill="none" stroke="black" points="163.38,-289 4.12,-289 4.12,-253 163.38,-253 163.38,-289"/>
<text xml:space="preserve" text-anchor="middle" x="83.75" y="-267.45" font-family="sans-serif" font-size="14.00">hcloud_network.main</text>
</g>
<!-- hcloud_load_balancer_network.main&#45;&gt;hcloud_network.main -->
<g id="edge7" class="edge">
<title>hcloud_load_balancer_network.main&#45;&gt;hcloud_network.main</title>
<path fill="none" stroke="black" d="M472.35,-257.45C380.06,-260.68 257.48,-264.96 175.09,-267.84"/>
<polygon fill="black" stroke="black" points="175.13,-264.34 165.26,-268.19 175.37,-271.33 175.13,-264.34"/>
</g>
<!-- hcloud_load_balancer_service.http -->
<g id="node11" class="node">
<title>hcloud_load_balancer_service.http</title>
<polygon fill="none" stroke="black" points="721.5,-144 479.75,-144 479.75,-108 721.5,-108 721.5,-144"/>
<text xml:space="preserve" text-anchor="middle" x="600.62" y="-122.45" font-family="sans-serif" font-size="14.00">hcloud_load_balancer_service.http</text>
</g>
<!-- hcloud_load_balancer_service.http&#45;&gt;hcloud_load_balancer.main -->
<g id="edge8" class="edge">
<title>hcloud_load_balancer_service.http&#45;&gt;hcloud_load_balancer.main</title>
<path fill="none" stroke="black" d="M490.68,-144.45C466.63,-148.53 441.17,-152.84 417.2,-156.9"/>
<polygon fill="black" stroke="black" points="416.7,-153.44 407.43,-158.56 417.87,-160.34 416.7,-153.44"/>
</g>
<!-- hcloud_load_balancer_service.https -->
<g id="node12" class="node">
<title>hcloud_load_balancer_service.https</title>
<polygon fill="none" stroke="black" points="724.88,-198 476.38,-198 476.38,-162 724.88,-162 724.88,-198"/>
<text xml:space="preserve" text-anchor="middle" x="600.62" y="-176.45" font-family="sans-serif" font-size="14.00">hcloud_load_balancer_service.https</text>
</g>
<!-- hcloud_load_balancer_service.https&#45;&gt;hcloud_load_balancer.main -->
<g id="edge9" class="edge">
<title>hcloud_load_balancer_service.https&#45;&gt;hcloud_load_balancer.main</title>
<path fill="none" stroke="black" d="M476.12,-177.87C456.57,-177.53 436.5,-177.18 417.37,-176.85"/>
<polygon fill="black" stroke="black" points="417.48,-173.35 407.42,-176.68 417.36,-180.35 417.48,-173.35"/>
</g>
<!-- hcloud_load_balancer_target.web_servers -->
<g id="node13" class="node">
<title>hcloud_load_balancer_target.web_servers</title>
<polygon fill="none" stroke="black" points="745.88,-334 455.38,-334 455.38,-298 745.88,-298 745.88,-334"/>
<text xml:space="preserve" text-anchor="middle" x="600.62" y="-312.45" font-family="sans-serif" font-size="14.00">hcloud_load_balancer_target.web_servers</text>
</g>
<!-- hcloud_load_balancer_target.web_servers&#45;&gt;hcloud_load_balancer.main -->
<g id="edge10" class="edge">
<title>hcloud_load_balancer_target.web_servers&#45;&gt;hcloud_load_balancer.main</title>
<path fill="none" stroke="black" d="M480.32,-297.58C469.85,-292.93 459.95,-287.16 451.25,-280 421.76,-255.75 444.57,-226.46 415.25,-202 414.28,-201.19 413.28,-200.4 412.26,-199.63"/>
<polygon fill="black" stroke="black" points="414.19,-196.71 403.91,-194.18 410.37,-202.58 414.19,-196.71"/>
</g>
<!-- hcloud_load_balancer_target.web_servers&#45;&gt;hcloud_server.domains -->
<g id="edge11" class="edge">
<title>hcloud_load_balancer_target.web_servers&#45;&gt;hcloud_server.domains</title>
<path fill="none" stroke="black" d="M509.29,-334.43C475.94,-341.23 438.07,-348.95 404.39,-355.82"/>
<polygon fill="black" stroke="black" points="403.72,-352.39 394.62,-357.82 405.12,-359.25 403.72,-352.39"/>
</g>
<!-- hcloud_network_subnet.main -->
<g id="node15" class="node">
<title>hcloud_network_subnet.main</title>
<polygon fill="none" stroke="black" points="415.25,-247 203.5,-247 203.5,-211 415.25,-211 415.25,-247"/>
<text xml:space="preserve" text-anchor="middle" x="309.38" y="-225.45" font-family="sans-serif" font-size="14.00">hcloud_network_subnet.main</text>
</g>
<!-- hcloud_network_subnet.main&#45;&gt;hcloud_network.main -->
<g id="edge12" class="edge">
<title>hcloud_network_subnet.main&#45;&gt;hcloud_network.main</title>
<path fill="none" stroke="black" d="M209.96,-247.48C198.24,-249.68 186.32,-251.92 174.73,-254.1"/>
<polygon fill="black" stroke="black" points="174.4,-250.6 165.21,-255.89 175.69,-257.48 174.4,-250.6"/>
</g>
<!-- hcloud_server.domains&#45;&gt;hcloud_firewall.main -->
<g id="edge13" class="edge">
<title>hcloud_server.domains&#45;&gt;hcloud_firewall.main</title>
<path fill="none" stroke="black" d="M225.74,-356.52C207.81,-352.52 188.81,-348.27 170.75,-344.23"/>
<polygon fill="black" stroke="black" points="171.65,-340.84 161.13,-342.08 170.13,-347.68 171.65,-340.84"/>
</g>
<!-- hcloud_server.domains&#45;&gt;hcloud_network.main -->
<g id="edge14" class="edge">
<title>hcloud_server.domains&#45;&gt;hcloud_network.main</title>
<path fill="none" stroke="black" d="M225.51,-359.61C217.74,-356.44 210.25,-352.61 203.5,-348 180.89,-332.55 189.61,-314.16 167.5,-298 166.13,-297 164.72,-296.03 163.27,-295.1"/>
<polygon fill="black" stroke="black" points="165.06,-292.09 154.63,-290.19 161.6,-298.17 165.06,-292.09"/>
</g>
<!-- hcloud_ssh_key.default -->
<g id="node18" class="node">
<title>hcloud_ssh_key.default</title>
<polygon fill="none" stroke="black" points="167.5,-397 0,-397 0,-361 167.5,-361 167.5,-397"/>
<text xml:space="preserve" text-anchor="middle" x="83.75" y="-375.45" font-family="sans-serif" font-size="14.00">hcloud_ssh_key.default</text>
</g>
<!-- hcloud_server.domains&#45;&gt;hcloud_ssh_key.default -->
<g id="edge15" class="edge">
<title>hcloud_server.domains&#45;&gt;hcloud_ssh_key.default</title>
<path fill="none" stroke="black" d="M225.74,-376.48C210.52,-376.75 194.53,-377.04 179,-377.31"/>
<polygon fill="black" stroke="black" points="179.24,-373.81 169.3,-377.49 179.37,-380.81 179.24,-373.81"/>
</g>
<!-- hcloud_server.shared -->
<g id="node17" class="node">
<title>hcloud_server.shared</title>
<polygon fill="none" stroke="black" points="387.12,-339 231.62,-339 231.62,-303 387.12,-303 387.12,-339"/>
<text xml:space="preserve" text-anchor="middle" x="309.38" y="-317.45" font-family="sans-serif" font-size="14.00">hcloud_server.shared</text>
</g>
<!-- hcloud_server.shared&#45;&gt;hcloud_firewall.main -->
<g id="edge16" class="edge">
<title>hcloud_server.shared&#45;&gt;hcloud_firewall.main</title>
<path fill="none" stroke="black" d="M231.42,-322.38C211.89,-322.73 190.79,-323.1 170.85,-323.46"/>
<polygon fill="black" stroke="black" points="171.03,-319.96 161.1,-323.63 171.16,-326.95 171.03,-319.96"/>
</g>
<!-- hcloud_server.shared&#45;&gt;hcloud_network.main -->
<g id="edge17" class="edge">
<title>hcloud_server.shared&#45;&gt;hcloud_network.main</title>
<path fill="none" stroke="black" d="M231.42,-303.79C213.23,-299.73 193.68,-295.35 174.96,-291.17"/>
<polygon fill="black" stroke="black" points="175.75,-287.76 165.23,-288.99 174.22,-294.59 175.75,-287.76"/>
</g>
<!-- hcloud_server.shared&#45;&gt;hcloud_ssh_key.default -->
<g id="edge18" class="edge">
<title>hcloud_server.shared&#45;&gt;hcloud_ssh_key.default</title>
<path fill="none" stroke="black" d="M236.44,-339.49C225.4,-342.33 214.15,-345.24 203.5,-348 191.46,-351.12 178.73,-354.43 166.25,-357.68"/>
<polygon fill="black" stroke="black" points="165.64,-354.23 156.85,-360.14 167.41,-361 165.64,-354.23"/>
</g>
</g>
</svg>
